<svg width="20" height="20" xmlns="http://www.w3.org/2000/svg"><path d="M10.157 0c.265 0 .522.086.741.247.92.674 2.839 2.054 5.375 2.287.7.063 1.23.686 1.227 1.45v6.247c0 2.546-3.98 8.769-7.453 8.769-3.32 0-7.547-6.097-7.547-8.993V3.954c0-.762.542-1.4 1.236-1.455 1.406-.11 3.992-.72 5.537-2.142.25-.231.563-.357.884-.357Zm-.158 5.092c-1.222 0-2.216 1.012-2.216 2.257a2.25 2.25 0 0 0 1.552 2.145v3.75c0 .368.293.664.652.664a.658.658 0 0 0 .653-.665l-.001-.743h.611a.75.75 0 0 0 .743-.648L12 11.75a.75.75 0 0 0-.75-.75h-.611V9.503a2.246 2.246 0 0 0 1.571-1.976l.007-.178c0-1.245-.996-2.257-2.218-2.257Z" fill-rule="nonzero"/></svg>