<svg xmlns="http://www.w3.org/2000/svg" width="20" height="20"><path fill-rule="nonzero" d="M15.31 1c1.209 0 2.19.998 2.19 2.23v13.54c0 1.23-.981 2.23-2.19 2.23H4.69c-1.209 0-2.19-.998-2.19-2.23V3.23C2.5 1.997 3.48 1 4.69 1h10.62Zm-3.135 13H6.193a.942.942 0 0 0-.934.95c0 .526.418.951.934.951h5.98a.943.943 0 0 0 .935-.95.942.942 0 0 0-.933-.951ZM9.568 9.5H6.193a.942.942 0 0 0-.934.95c0 .526.418.951.934.951h3.375a.942.942 0 0 0 .934-.95.942.942 0 0 0-.934-.951ZM12.175 5H6.193a.942.942 0 0 0-.934.95c0 .526.418.951.934.951h5.98a.943.943 0 0 0 .935-.95.942.942 0 0 0-.933-.951Z"/></svg>