<svg width="24" height="24" xmlns="http://www.w3.org/2000/svg"><g fill="none" fill-rule="evenodd"><path d="M0 0h24v24H0z"/><path d="M18.74 9.794H8.619V6.128c0-1.213 1.512-2.561 3.374-2.561 1.864 0 3.375 1.348 3.375 2.561v1.1h.014c.093.621.64 1.099 1.3 1.099.666 0 1.214-.478 1.302-1.1h.014V6.128c0-2.83-2.684-5.128-6-5.128-3.31 0-5.995 2.298-5.995 5.128v3.666H5.25C4.007 9.794 3 10.78 3 11.998v8.804C3 22.015 4.007 23 5.25 23h13.5c1.248 0 2.25-.985 2.25-2.198v-8.804c-.005-1.22-1.022-2.204-2.26-2.204Zm-5.628 8.122v1c0 .632-.503 1.14-1.13 1.14-.296 0-.582-.12-.792-.333a1.146 1.146 0 0 1-.327-.807v-1c-.885-.407-1.506-1.283-1.506-2.287 0-1.403 1.179-2.537 2.626-2.537 1.447 0 2.62 1.134 2.62 2.537.01 1.004-.606 1.88-1.49 2.287Z"  fill="#17E" fill-rule="nonzero"/></g></svg>