<svg width="14" height="14" xmlns="http://www.w3.org/2000/svg"><path d="M10.633 9.64a5.839 5.839 0 0 0 1.342-3.73c0-3.264-2.68-5.91-5.987-5.91C2.68 0 0 2.646 0 5.91c0 3.266 2.68 5.911 5.988 5.911a6.006 6.006 0 0 0 3.579-1.172c.057-.042 3.055 3.043 3.177 3.163.225.241.688.276 1.008-.048.32-.323.315-.736.072-.976l-3.19-3.148Zm-2.947.243a4.381 4.381 0 0 1-1.699.338 4.369 4.369 0 0 1-4.024-2.633 4.23 4.23 0 0 1-.342-1.677 4.254 4.254 0 0 1 1.278-3.048 4.381 4.381 0 0 1 3.088-1.262 4.369 4.369 0 0 1 4.024 2.633 4.23 4.23 0 0 1 .342 1.677A4.254 4.254 0 0 1 9.075 8.96c-.403.396-.87.706-1.389.924Z" fill-rule="evenodd"/></svg>