<svg width="28" height="28" xmlns="http://www.w3.org/2000/svg" xmlns:xlink="http://www.w3.org/1999/xlink"><defs><linearGradient x1="7.199%" y1="50.269%" x2="100%" y2="50.102%" id="b"><stop stop-color="#0667FF" offset="0%"/><stop stop-color="#65B5F8" offset="100%"/></linearGradient><path id="a" d="M0 0v92h1920V0z"/></defs><g fill="none" fill-rule="evenodd"><g transform="translate(-1862 -33)"><mask id="c" fill="#fff"><use xlink:href="#a"/></mask><use fill="#17E" xlink:href="#a"/><path d="M0 37.367c228.627-14.436 433.633-8.939 615.02 16.49C887.1 92 1150.794 95.888 1342.02 62.99 1469.502 41.06 1662.162 29.395 1920 28v62.159L0 92V37.367Z" fill="url(#b)" opacity=".273" mask="url(#c)"/></g><path d="M20.663 4.769c.84.582 1.584 1.242 2.235 1.98a12.94 12.94 0 0 1 1.677 2.39A11.814 11.814 0 0 1 26 14.764c0 1.693-.331 3.282-.992 4.765a12.454 12.454 0 0 1-2.683 3.879 12.758 12.758 0 0 1-3.966 2.621c-1.516.647-3.143.97-4.874.97-1.713 0-3.328-.323-4.847-.97a12.97 12.97 0 0 1-3.98-2.621 12.166 12.166 0 0 1-2.68-3.879C1.324 18.047 1 16.458 1 14.765c0-.965.115-1.912.347-2.84.234-.929.565-1.812.994-2.65a11.69 11.69 0 0 1 1.59-2.349A13.419 13.419 0 0 1 6.054 4.96c.41-.291.854-.4 1.328-.328.474.073.86.3 1.159.683.298.382.409.81.336 1.284a1.71 1.71 0 0 1-.7 1.147c-1.172.837-2.07 1.866-2.694 3.086a8.525 8.525 0 0 0-.937 3.933c0 1.201.232 2.335.7 3.4a8.732 8.732 0 0 0 1.912 2.786 9.186 9.186 0 0 0 2.85 1.884 8.774 8.774 0 0 0 3.477.696c1.23 0 2.389-.232 3.478-.696a9.204 9.204 0 0 0 2.85-1.884 8.959 8.959 0 0 0 1.926-2.786 8.244 8.244 0 0 0 .713-3.4c0-1.42-.336-2.763-1.006-4.029a8.57 8.57 0 0 0-2.821-3.127 1.647 1.647 0 0 1-.74-1.12 1.714 1.714 0 0 1 1.438-2.007c.485-.082.931.014 1.34.287Zm-7.178 10.078c-.484 0-.898-.169-1.244-.506a1.639 1.639 0 0 1-.516-1.215V2.748c0-.474.172-.883.516-1.23.346-.345.76-.518 1.244-.518.503 0 .926.173 1.27.519.346.346.518.755.518 1.229v10.378c0 .473-.172.879-.518 1.215a1.745 1.745 0 0 1-1.27.506Z" fill="#FFF" fill-rule="nonzero"/></g></svg>