<svg width="24" height="24" xmlns="http://www.w3.org/2000/svg"><g fill="none" fill-rule="evenodd"><path d="M0 0h24v24H0z"/><path d="M14.194 13.333H9.143C5.204 13.333 2 16.588 2 20.588 2 22.47 3.51 24 5.36 24h12.614c1.854 0 3.36-1.533 3.36-3.412.003-4-3.202-7.255-7.14-7.255Zm-2.527-.666A6.342 6.342 0 0 0 18 6.333 6.342 6.342 0 0 0 11.667 0a6.342 6.342 0 0 0-6.334 6.333 6.342 6.342 0 0 0 6.334 6.334Zm-.935-5.334h2.793c.309 0 .544.284.457.57-.254.826-1.046 1.43-1.982 1.43-.937 0-1.728-.604-1.982-1.43-.087-.286.148-.57.714-.57Z" fill="#17E" fill-rule="nonzero"/></g></svg>