<svg width="24" height="24" xmlns="http://www.w3.org/2000/svg"><path d="M12 5.143a1.72 1.72 0 0 0-1.714 1.714V12A1.72 1.72 0 0 0 12 13.714 1.72 1.72 0 0 0 13.714 12V6.857A1.72 1.72 0 0 0 12 5.143ZM12 0C5.366 0 0 5.366 0 12s5.366 12 12 12 12-5.366 12-12S18.617 0 12 0Zm0 22.286C6.326 22.286 1.714 17.674 1.714 12 1.714 6.326 6.326 1.714 12 1.714c5.674 0 10.286 4.612 10.286 10.286 0 5.674-4.612 10.286-10.286 10.286Zm0-6.857a1.72 1.72 0 0 0-1.714 1.714A1.72 1.72 0 0 0 12 18.857a1.72 1.72 0 0 0 1.714-1.714A1.72 1.72 0 0 0 12 15.429Z" fill="#FA0" fill-rule="nonzero"/></svg>